<?xml version="1.0" encoding="utf-8"?>
<!-- Generator: Adobe Illustrator 26.3.1, SVG Export Plug-In . SVG Version: 6.00 Build 0)  -->
<svg version="1.1" id="Layer_1" xmlns="http://www.w3.org/2000/svg" xmlns:xlink="http://www.w3.org/1999/xlink" x="0px" y="0px"
	 viewBox="0 0 65.82 65.82" style="enable-background:new 0 0 65.82 65.82;" xml:space="preserve">
<style type="text/css">
	.st0{fill:#A7A9AC;}
	.st1{fill:#FFFFFF;}
	.st2{fill:#D1D3D4;}
	.st3{fill:#E6E6E6;}
</style>
<polygon class="st0" points="39.07,12.75 50.53,31.17 62.33,12.75 65.82,12.75 65.82,0 35.33,0 35.33,12.75 "/>
<polygon class="st0" points="52.95,53.51 50.4,53.51 42.34,65.82 65.82,65.82 65.82,16.31 52.95,35.95 "/>
<polygon class="st0" points="15.29,31.17 27.09,12.75 30.49,12.75 30.49,0 0,0 0,12.75 3.83,12.75 "/>
<polygon class="st0" points="12.87,53.51 12.87,35.95 0,16.31 0,65.82 23.47,65.82 15.42,53.51 "/>
<polygon class="st0" points="17.71,35.95 17.71,53.32 21.45,53.32 29.22,65.82 36.71,65.82 44.71,53.32 48.11,53.32 48.11,35.95 
	33.34,13.41 32.47,13.41 "/>
<polygon class="st1" points="62.33,12.75 50.53,31.17 39.07,12.75 35.33,12.75 35.33,13.41 33.34,13.41 48.11,35.95 48.11,53.32 
	50.53,53.32 50.4,53.51 52.95,53.51 52.95,35.95 65.82,16.31 65.82,12.75 "/>
<polygon class="st2" points="48.11,53.51 48.11,53.32 44.71,53.32 36.71,65.82 42.34,65.82 50.4,53.51 "/>
<polygon class="st2" points="21.45,53.32 17.71,53.32 17.71,53.51 15.42,53.51 23.47,65.82 29.22,65.82 "/>
<polygon class="st3" points="50.4,53.51 50.53,53.32 48.11,53.32 48.11,53.51 "/>
<polygon class="st2" points="32.91,12.75 35.33,12.75 35.33,0 30.49,0 30.49,12.75 "/>
<polygon class="st3" points="32.47,13.41 33.34,13.41 32.91,12.75 "/>
<polygon class="st3" points="33.34,13.41 35.33,13.41 35.33,12.75 32.91,12.75 "/>
<polygon class="st1" points="12.87,53.51 15.42,53.51 15.29,53.32 17.71,53.32 17.71,35.95 32.47,13.41 30.49,13.41 30.49,12.75 
	27.09,12.75 15.29,31.17 3.83,12.75 0,12.75 0,16.31 12.87,35.95 "/>
<polygon class="st1" points="15.42,53.51 17.71,53.51 17.71,53.32 15.29,53.32 "/>
<polygon class="st1" points="30.49,12.75 30.49,13.41 32.47,13.41 32.91,12.75 "/>
</svg>
